<svg width="4" height="11" viewBox="0 0 4 11" fill="none" xmlns="http://www.w3.org/2000/svg">
<path d="M2.2203 3.682C1.7283 3.682 1.3143 3.514 0.978305 3.178C0.642305 2.842 0.474305 2.422 0.474305 1.918C0.474305 1.402 0.642305 0.988 0.978305 0.676C1.3143 0.352 1.7283 0.19 2.2203 0.19C2.7123 0.19 3.1263 0.352 3.4623 0.676C3.7983 0.988 3.9663 1.402 3.9663 1.918C3.9663 2.422 3.7983 2.842 3.4623 3.178C3.1263 3.514 2.7123 3.682 2.2203 3.682ZM2.2203 10.144C1.7283 10.144 1.3143 9.976 0.978305 9.64C0.642305 9.304 0.474305 8.884 0.474305 8.38C0.474305 7.864 0.642305 7.45 0.978305 7.138C1.3143 6.814 1.7283 6.652 2.2203 6.652C2.7123 6.652 3.1263 6.814 3.4623 7.138C3.7983 7.45 3.9663 7.864 3.9663 8.38C3.9663 8.884 3.7983 9.304 3.4623 9.64C3.1263 9.976 2.7123 10.144 2.2203 10.144Z" fill="black"/>
</svg>
